<?xml version="1.0" standalone="no"?>
<!DOCTYPE svg PUBLIC "-//W3C//DTD SVG 20010904//EN"
 "http://www.w3.org/TR/2001/REC-SVG-20010904/DTD/svg10.dtd">
<svg version="1.0" xmlns="http://www.w3.org/2000/svg"
 width="1400.000000pt" height="1400.000000pt" viewBox="0 0 1400.000000 1400.000000"
 preserveAspectRatio="xMidYMid meet">

<g transform="translate(0.000000,1400.000000) scale(0.100000,-0.100000)"
fill="#000000" stroke="none">
<path d="M6205 9383 c-897 -35 -1563 -108 -2029 -223 -164 -40 -279 -81 -388
-137 -83 -43 -95 -53 -209 -182 -21 -24 -21 -29 -16 -295 7 -372 43 -648 128
-996 169 -690 516 -1345 960 -1814 45 -48 80 -88 78 -90 -2 -2 -80 -29 -174
-60 -473 -156 -709 -356 -709 -601 0 -91 22 -154 84 -238 251 -340 1134 -574
2440 -648 250 -14 849 -14 1100 0 277 16 524 37 755 66 980 122 1577 348 1728
654 30 61 32 73 32 166 0 93 -2 105 -32 166 -36 73 -128 170 -220 232 -96 65
-273 144 -457 205 l-174 58 56 58 56 58 141 -17 c392 -48 786 -32 1090 45 328
83 580 223 800 444 240 241 370 500 441 878 25 129 30 462 10 580 -100 589
-592 986 -1378 1113 -24 4 -38 11 -38 20 0 12 -16 15 -73 15 l-72 0 -20 36
c-141 261 -1047 443 -2510 504 -209 9 -1204 11 -1400 3z m1610 -342 c812 -50
1319 -113 1710 -213 126 -32 245 -75 245 -88 0 -22 -222 -87 -460 -134 -570
-113 -1289 -172 -2235 -183 -1172 -13 -2243 72 -2859 227 -133 33 -266 80
-266 94 0 2 38 18 83 34 354 128 1144 231 2077 272 254 11 1486 4 1705 -9z
m2672 -612 c428 -109 716 -321 832 -611 52 -130 64 -219 58 -423 -8 -256 -49
-429 -148 -629 -145 -290 -409 -508 -752 -620 -210 -69 -398 -96 -675 -96
-243 0 -334 8 -330 29 3 14 22 16 153 13 404 -10 736 69 985 234 298 197 480
499 531 880 17 133 7 380 -21 474 -94 325 -340 555 -725 680 -55 17 -106 34
-112 36 -14 4 -17 32 -7 59 8 20 52 15 211 -26z m-549 -86 c-35 -538 -185
-1094 -423 -1568 -178 -352 -373 -625 -643 -898 -475 -481 -1063 -772 -1690
-838 -166 -17 -524 -7 -675 20 -739 131 -1385 547 -1863 1201 -122 167 -195
284 -289 463 -209 401 -352 843 -419 1297 -21 141 -41 368 -34 375 3 4 55 -9
115 -28 319 -103 885 -188 1568 -237 692 -48 1713 -53 2410 -9 697 43 1291
124 1645 225 121 34 265 88 285 105 5 5 12 9 15 9 3 0 2 -53 -2 -117z m413
-317 c250 -95 406 -253 455 -462 24 -102 15 -315 -20 -448 -64 -246 -207 -433
-426 -554 -77 -43 -247 -98 -360 -116 -104 -16 -300 -31 -300 -23 0 3 34 70
74 149 226 433 380 905 452 1376 10 66 21 112 28 112 6 -1 50 -15 97 -34z
m-5171 -2758 c417 -294 839 -467 1332 -545 91 -14 172 -18 413 -18 267 1 315
3 434 24 518 89 953 278 1375 596 l69 52 116 -29 c448 -112 741 -258 741 -369
0 -72 -182 -184 -436 -269 -386 -128 -876 -215 -1509 -267 -303 -25 -1287 -25
-1590 0 -785 65 -1382 188 -1730 357 -128 62 -186 104 -210 150 -20 40 -8 66
56 124 98 88 356 193 661 270 128 32 134 33 153 16 11 -10 67 -51 125 -92z"/>
</g>
</svg>
